<?xml version="1.0" encoding="UTF-8"?>
<svg width="290px" height="290px" viewBox="0 0 290 290" version="1.1" xmlns="http://www.w3.org/2000/svg" xmlns:xlink="http://www.w3.org/1999/xlink">
    <title>logo-luna</title>
    <g id="logo-luna" stroke="none" stroke-width="1" fill="none" fill-rule="evenodd">
        <path d="M145,0 C225.081289,0 290,64.9187113 290,145 C290,225.081289 225.081289,290 145,290 C64.9187113,290 0,225.081289 0,145 C0,64.9187113 64.9187113,0 145,0 Z M145,28.6879553 C80.7626315,28.6879553 28.6879553,80.7626315 28.6879553,145 C28.6879553,209.237369 80.7626315,261.312045 145,261.312045 C209.237369,261.312045 261.312045,209.237369 261.312045,145 C261.312045,80.7626315 209.237369,28.6879553 145,28.6879553 Z M180.895045,126.295 C205.091769,126.295 224.707089,145.910321 224.707089,170.107045 C224.707089,179.801186 221.627391,188.736199 216.297217,195.992821 C198.623244,220.054574 172.631315,232.646134 145,232.646134 C97.1633609,232.646134 64.6007826,195.992821 58.7064354,160.195789 C89.783082,181.584216 127.830376,170.107045 144.693124,145.423322 C152.582455,133.874905 165.853559,126.295 180.895045,126.295 Z" id="logo" fill="#333333" fill-rule="nonzero"></path>
    </g>
</svg>