<svg xmlns="http://www.w3.org/2000/svg" viewBox="0 0 280 290">
  <path fill="#333" fill-rule="evenodd" d="M140 5c4.93 0 9.91.26 14.79.77 7.39.78 13.28 6.97 12.88 14.4-.43 7.9-7.4 13.7-15.15 12.85a114.12 114.12 0 00-22.62-.22 13.5 13.5 0 00-12.01 16.41l.1.43a13.55 13.55 0 01-8.62 15.67 84.72 84.72 0 00-55.34 79.67c0 46.97 38.56 85.19 85.96 85.19 46.75 0 84.88-37.17 85.93-83.25a39.96 39.96 0 01-11.15-75.02c18.57-9.43 40.43-2.59 51.9 14.31C277.24 101.81 280 131.31 280 145c0 77.2-62.8 140-140 140S0 222.2 0 145c0-41.94 18.56-81.31 50.94-108.03A140.23 140.23 0 01139.99 5zm55.2 10.53a14.5 14.5 0 11-.01 29.02 14.5 14.5 0 010-29.02z"/>
</svg>
