<svg xmlns="http://www.w3.org/2000/svg" viewBox="0 0 375 290">
  <path fill="#333" fill-rule="nonzero" d="M10.27 32.14h6.33c5.92 0 7.5 3.47 7.5 7.2 0 8-5.53 8-10.66 8h-3.17v-15.2zM0 78.03h18.18c6.71 0 11.46-2.14 13.83-3.74 1.97-1.6 5.53-5.6 5.53-12 0-2.4-.4-5.34-2.37-8.27a11.02 11.02 0 00-8.3-5.6c1.98-1.07 7.9-4.01 7.9-10.95 0-3.47-1.58-6.4-3.95-8C27.66 26.53 22.52 26 17.4 26c-4.75 0-12.65.53-17.39.53v51.5zm124.91 146.21c5.65.02 8.73.34 11.81 2.94 2.37 2.4 2.77 5.34 2.77 7.74 0 4.53-2.37 8.54-7.9 10.4 3.16 7.47 6.32 12.28 8.69 13.61 1.58 1.07 2.77 1.07 3.95 1.07v.26l-.4 2.4c-.39.27-.39.54-.39.54-.4.27-2.37.8-3.95.8-7.5 0-10.67-6.14-15.41-17.34-1.98.26-3.16.26-4.74.26v16.28h-7.9v-38.69c1.97 0 11.85-.27 13.03-.27zm220.45.27l22.53 27.22-.4-27.22h5.53l-.4 38.16-4.34 1.33-23.31-28.55.4 27.75h-5.54v-38.69h5.53zm-173.82-.27c5.67.02 9.11.34 11.81 2.94a10.96 10.96 0 013.16 7.74c0 4.53-2.37 8.54-8.3 10.4 3.17 7.47 6.72 12.28 8.7 13.61a6.7 6.7 0 003.95 1.07v.26l-.4 2.4c0 .27 0 .54-.4.54-.39.27-2.36.8-3.94.8-7.51 0-10.67-6.14-15.41-17.34a30.7 30.7 0 01-4.75.26v16.28h-7.9v-38.69c1.98 0 11.86-.27 13.04-.27zm138.65.27l14.23 38.69h-8.3l-3.95-11.47h-13.43l-3.96 11.47h-6.71l16.6-38.69h5.52zm-70.33 0l12.25 27.75 12.64-27.75h7.12l1.18 38.69h-7.11l-.8-27.48-12.64 26.68-3.55.53-12.25-28.28-.4 28.55h-5.53l2.37-38.69h6.72zM10.27 211.44v20.8H32.8v-20.8h9.88v51.76H32.8v-24.28H10.27v24.28H0v-51.76h10.27zM81.8 224.5l14.62 38.69h-8.7l-3.55-11.47H70.34l-3.95 11.47h-6.72l16.6-38.69h5.53zm130.8 0v38.69h-7.52v-38.69h7.51zm-135.15 7.74l-5.14 14.67H82.6l-5.14-14.67zm228.4 0l-5.53 14.67h10.27l-4.74-14.67zm-182.17-3.47h-4.34v13.6c3.95.27 5.13.27 7.1-.26 3.57-.53 5.15-3.2 5.15-6.94 0-4-1.98-6.4-7.9-6.4zm46.63 0h-4.35v13.6c3.96.27 5.14.27 7.12-.26 3.55-.53 5.13-3.2 5.13-6.94 0-4-1.97-6.4-7.9-6.4zm-46.23-97.65c1.18 0 7.9.26 12.64 4.8 2.37 1.87 6.33 6.67 6.33 14.94 0 13.87-10.28 20.54-20.95 20.54-13.83 0-19.36-10.67-19.36-20 0-6.94 2.77-11.75 6.72-15.21 4.74-4.27 9.88-5.07 14.62-5.07zm193.67.53c5.66.01 9.11.33 11.8 2.93a10.96 10.96 0 013.17 7.74c0 4.54-2.77 8.54-8.3 10.4 3.16 7.48 6.32 12.28 8.7 13.62a6.11 6.11 0 003.95 1.06v.27l-.4 2.4c0 .27-.4.53-.4.53-.39.54-2.37.8-3.95.8-7.5 0-10.67-6.13-15.4-17.07h-4.75v16.27h-7.5v-38.68c.75 0 3.4-.07 6.1-.13l.73-.02c2.69-.06 5.24-.12 5.8-.12zm-247 0c5.66.01 8.74.33 11.44 2.93 2.77 2.4 3.16 5.34 3.16 7.74 0 4.54-2.37 8.54-7.9 10.4 3.16 7.48 6.32 12.28 8.7 13.62 1.18 1.06 2.76 1.06 3.55 1.06l.4.27-.8 2.4v.53c-.79.54-2.37.8-3.95.8-7.5 0-11.06-6.13-15.8-17.07H65.2v16.27h-7.9v-38.68c1.58 0 11.85-.27 13.04-.27zm293.98-.53c3.55 0 7.5 1.06 7.9 1.33.4.27.4.53.79 1.07l.4 3.47c0 .8 0 .8-.4 1.06l-1.19.8h-.4c-.39 0-1.57-1.06-1.97-1.06-1.58-.8-3.55-1.87-6.32-1.87-3.95 0-5.93 1.87-5.93 4.8 0 3.2 1.58 4 7.51 6.94 5.53 2.93 9.88 5.07 9.88 11.47 0 6.67-5.53 12.27-13.83 12.27-2.77 0-7.11-.8-9.88-1.6-.79-.26-.79-.26-.79-1.06l-.4-4.27c-.39-.54-.39-.8 0-1.07l1.59-.8h.4l1.57 1.07c4.35 2.4 7.11 2.67 8.3 2.67 4.74 0 6.32-2.94 6.32-5.34 0-3.2-2.37-4-6.72-6.4-5.53-2.67-11.06-5.07-11.06-12.28 0-6.94 5.93-11.2 14.23-11.2zm-150.16.8v15.47h16.99v-15.47h7.5v38.68h-7.5v-18.14h-17v18.14h-7.5v-38.68h7.5zm71.13 0v4.8H267.9v11.2h15.81v4.8h-15.8v12.81h18.17v5.07h-25.68v-38.68h25.29zM17.39 118.59c5.13 0 10.27.53 13.43 3.2a10.29 10.29 0 013.95 8c0 7.2-5.92 10.14-7.9 10.94 1.98.53 5.93 1.34 8.3 5.87 1.97 2.67 2.37 5.87 2.37 8 0 6.68-3.56 10.68-5.53 12.28-2.37 1.6-7.12 3.73-13.83 3.73H0v-51.5c4.74 0 12.64-.52 17.39-.52zm173.86 13.34V137h-13.83v33.61h-7.5V137h-13.83v-5.07h35.16zm-68.75 4c-7.9 0-11.86 6.94-11.86 14.67 0 10.14 5.93 16.01 12.65 16.01 4.34 0 11.46-3.2 11.46-14.67 0-10.14-5.93-16.01-12.25-16.01zM13.68 145.8h-3.4v18.68h1.31c5.78 0 8.33-.06 10.54-.8 3.55-1.6 4.74-4.54 4.74-8.27 0-8.45-5.5-9.48-11.52-9.6h-.96l-.95-.01zm55.87-9.6H65.2v13.6c3.95.27 5.14.27 7.11 0 3.56-.8 5.14-3.47 5.14-6.93 0-4-1.98-6.67-7.9-6.67zm246.97 0h-4.35v13.6c3.95.27 5.14.27 7.11 0 3.95-.8 5.14-3.47 5.14-6.93 0-4-1.58-6.67-7.9-6.67zM16.6 124.72h-6.33v15.21h4.67c4.66-.08 9.16-.78 9.16-8 0-4-1.58-7.2-7.5-7.2zm306.24-61.37h49.79V75.1h-49.79c-8.3.27-14.23 9.08-16.2 13.61V72.16c4.74-5.07 10.67-9.07 16.2-8.8zm-74.68-24l22.12 27.2-.4-27.2h5.54v38.41l-4.74 1.07-23.31-28.55.4 27.75h-5.54l.4-38.69h5.53zm-174.27-.28c6.33 0 9.49.54 12.25 2.94a10.96 10.96 0 013.16 7.74c0 4.53-2.76 8.53-8.3 10.4 3.17 7.74 6.33 12.28 8.7 13.61 1.58 1.07 2.77 1.07 3.95 1.07v.26l-.4 2.4c0 .27-.39.54-.39.54-.4.53-2.37.8-3.95.8-7.5 0-10.67-6.14-15.41-17.08-1.98.27-3.16.27-4.74 0v16.28h-7.51V39.34c1.58 0 11.46-.27 12.64-.27zm57.7-.53c1.18 0 7.9.53 12.64 4.8 2.37 2.14 5.93 6.67 5.93 15.21 0 13.6-10.28 20.28-20.55 20.28-14.23 0-19.36-10.67-19.36-19.74 0-6.94 2.37-11.74 6.72-15.48 4.74-4.27 9.48-5.07 14.62-5.07zm43.86.8l9.09 29.08 9.08-29.08h4.35l8.7 29.08 9.48-29.08h6.72l-15.02 38.69h-5.53l-7.9-25.35-8.3 25.35h-5.54l-13.43-38.69h8.3zm-45.84 4c-7.5 0-11.46 7.2-11.46 14.94 0 9.88 5.93 15.75 12.65 15.75 4.34 0 11.45-3.2 11.45-14.68 0-10.14-5.92-16-12.64-16zm-114.5 9.89h.48c5.93.15 11.28 1.25 11.28 9.6 0 3.73-1.19 6.66-4.74 8.26-2.21.75-4.76.8-10.54.8h-1.32V53.22h4.84zm307.73-13.89h49.79v11.74h-49.79c-8.3.27-14.23 9.07-16.2 13.6V48.16c4.74-5.07 10.67-9.08 16.2-8.8zM73.1 43.88h-4.34v13.6h1.1c3.1 0 4.23-.02 6-.26 3.96-.8 5.15-3.47 5.15-6.94 0-4-1.58-6.4-7.9-6.4z"/>
</svg>
