<svg xmlns="http://www.w3.org/2000/svg" viewBox="0 0 290 290">
  <path fill="#333" fill-rule="nonzero" d="M145 0c80.08 0 145 64.92 145 145s-64.92 145-145 145S0 225.08 0 145 64.92 0 145 0zm0 28.69C80.76 28.69 28.69 80.76 28.69 145c0 64.24 52.07 116.31 116.31 116.31 64.24 0 116.31-52.07 116.31-116.31 0-64.24-52.07-116.31-116.31-116.31zm35.9 97.6a43.81 43.81 0 0143.8 43.82c0 9.7-3.07 18.63-8.4 25.88-17.68 24.06-43.67 36.66-71.3 36.66-47.84 0-80.4-36.66-86.3-72.45 31.08 21.38 69.13 9.9 86-14.78a43.77 43.77 0 0136.2-19.12z"/>
</svg>
